<svg xmlns="http://www.w3.org/2000/svg" viewBox="0 0 256 256"><path fill="#fff" d="M181.56 40.19q27.17.07 41.4.38c15.8.34 32.51 17.62 32.52 33.53q.04 54.57.07 109.15 0 4.85-1.94 9.26c-5.62 12.77-17.87 23.52-32.29 23.51q-93.7-.05-187.39-.01c-14.41.01-26.89-12.91-31.6-25.48-1.3-3.5-1.6-8.5-1.63-12.32Q.48 151.61.58 90c.02-8.96-.64-18.88 2.86-26.71 5.82-12.98 18-22.63 32.69-22.92 36.44-.74 83.38-.35 145.43-.18Zm-42.24 86.99c4.21 2.37 14.11 7.11 14.38 11.34.22 3.4-3.54 6.28-6.53 6.64q-11.11 1.33-21.48-2.95a1.01 1.01 0 0 0-1.37.73l-2.45 11.74a1.96 1.96 0 0 0 1.3 2.26c13.03 4.33 27.11 4.2 38.32-3.98q8.18-5.98 9.95-14.1c2.82-12.95-9.93-18.72-19.83-24.23-4.52-2.52-6.89-8.48-.52-10.55q10.3-3.34 19.86 2.65.59.36.72-.31l2.62-13.66q.11-.58-.44-.79-14.67-5.53-29.08-1.19c-17.5 5.26-22.42 26.86-5.45 36.4Zm-78.71 9.86a.43.42-40.6 0 1-.82-.06c-2.18-12.93-14.07-26.16-24.42-33.51a.39.39 0 0 0-.62.3q-.02.28.09.71 6.64 26.33 13.62 52.56.13.48.62.49l18.81.3q.7.01.96-.64l26.7-66.29q.39-.97-.66-.98l-17.23-.06a1.27 1.27 0 0 0-1.2.85l-15.85 46.33Zm132.27 11.6a.6.6 0 0 1 .56-.39h21.78a.6.6 0 0 1 .59.48l1.64 8.31a.6.6 0 0 0 .57.49l15.21.26a.6.6 0 0 0 .6-.72l-13.68-66.58a.6.6 0 0 0-.58-.48l-17.98-.35a.6.6 0 0 0-.56.36L172 156.91a.6.6 0 0 0 .55.84h16.59a.6.6 0 0 0 .56-.39l3.18-8.72Zm-100.25 8.03a1 1 0 0 0 1.01 1.16l16.06-.3a1 1 0 0 0 .97-.85l10.49-65.52a1 1 0 0 0-.98-1.16h-16.24a1 1 0 0 0-.99.85l-10.32 65.82Zm-40.49-58.2c-.93-4.17-4.9-8-9.64-7.98-8.69.04-17.82-.56-26.45.05q-.68.05-.04.3c17.76 7.03 31.96 16.4 40.96 33.51q.43.82.28-.09-2.24-12.99-5.11-25.79Z"/><path fill="#fff" d="M198.48 134.48c.9-2.43 8.81-23.88 9.49-23.87a.32.32 0 0 1 .3.26l4.55 23.61a.65.64 84.5 0 1-.63.77h-13.17q-.83 0-.54-.77Z"/></svg>